#!OML:ASF X:\für Bonn\!DataBase\2005_08_12_Daniel\c3d\Daniel.ASF
:FULLY-SPECIFIED
:DEGREES
108
root 0.734807 16.0678 0.401251 -34.2657 -85.1275 20.209
lowerback 19.5701 -1.15024 4.11878
upperback 4.00526 -1.06811 -2.07124
thorax -6.71358 -0.710295 -4.30991
lowerneck 11.9591 -1.38326 -3.31756
upperneck -11.0648 -2.96789 -3.37755
head -5.30954 -1.09683 -0.278428
rclavicle -1.42814e-014 7.95139e-016
rhumerus -165.508 -200.203 90.6871
rradius 83.2933
rwrist 25.6617
rhand -43.4492 10.5427
rfingers 7.12502
rthumb -16.2909 -18.793
lclavicle -1.42814e-014 7.95139e-016
lhumerus -160.421 215.247 -91.9976
lradius 78.2409
lwrist 25.5308
lhand -31.4235 358.703
lfingers 7.12502
lthumb -4.69213 28.6313
rfemur -6.25825 -4.81909 8.52103
rtibia 54.6498
rfoot -27.7568 -5.93818
rtoes -13.4242
lfemur -12.4113 -7.78596 -19.3213
ltibia 55.6992
lfoot -30.3627 -3.54111
ltoes 0.290831
109
root 0.691853 16.0296 0.409509 -33.3237 -84.9638 18.8003
lowerback 19.5021 -1.09884 4.22546
upperback 3.8436 -0.970413 -2.07395
thorax -6.84403 -0.667047 -4.39974
lowerneck 12.3123 -1.5166 -3.52517
upperneck -10.5338 -3.14864 -3.22066
head -5.19675 -1.19491 -0.181644
rclavicle -3.42593e-015 1.17283e-014
rhumerus -162.99 -199.838 91.789
rradius 83.9508
rwrist 26.0373
rhand -44.5026 11.5408
rfingers 7.12502
rthumb -17.3049 -17.7087
lclavicle -3.42593e-015 1.17283e-014
lhumerus -157.92 215.55 -93.4467
lradius 79.1415
lwrist 24.9694
lhand -31.4441 358.233
lfingers 7.12502
lthumb -4.71199 28.1606
rfemur -5.7583 -5.17764 8.26244
rtibia 55.0686
rfoot -27.8243 -5.55472
rtoes -13.6082
lfemur -11.9855 -7.75029 -19.3541
ltibia 56.1398
lfoot -30.7362 -3.79781
ltoes 0.0985499
110
root 0.647645 15.9902 0.416574 -32.4283 -84.7757 17.5061
lowerback 19.3588 -1.04157 4.3083
upperback 3.68402 -0.872036 -2.07517
thorax -6.9313 -0.621938 -4.47435
lowerneck 12.5749 -1.65116 -3.69299
upperneck -9.99039 -3.324 -3.0801
head -5.06508 -1.29346 -0.0980175
rclavicle 5.1653e-015 -9.14409e-015
rhumerus -160.465 -199.379 92.9586
rradius 84.4607
rwrist 26.5067
rhand -45.5677 12.4952
rfingers 7.12502
rthumb -18.3299 -16.6612
lclavicle 5.1653e-015 -9.14409e-015
lhumerus -155.4 215.77 -94.9182
lradius 80.1606
lwrist 24.4952
lhand -31.4682 358.099
lfingers 7.12502
lthumb -4.73521 28.0263
rfemur -5.32572 -5.56644 7.98437
rtibia 55.5125
rfoot -27.9034 -5.18098
rtoes -13.8305
lfemur -11.6503 -7.71282 -19.373
ltibia 56.6029
lfoot -31.0725 -4.13743
ltoes -0.0040576
111
root 0.604782 15.9509 0.42175 -31.0165 -84.5862 15.8004
lowerback 19.1608 -0.996326 4.43071
upperback 3.48355 -0.780873 -2.07554
thorax -7.03448 -0.581652 -4.56897
lowerneck 12.764 -1.78789 -3.75018
upperneck -9.39384 -3.48886 -3.02084
head -4.9075 -1.38876 -0.05968
rclavicle -7.78754e-015 -1.21259e-014
rhumerus -157.907 -198.856 94.1598
rradius 84.7355
rwrist 27.0227
rhand -46.7452 13.6022
rfingers 7.12502
rthumb -19.4624 -15.4438
lclavicle -7.78754e-015 -1.21259e-014
lhumerus -152.961 215.913 -96.3658
lradius 81.2303
lwrist 24.1225
lhand -31.4795 358.147
lfingers 7.12502
lthumb -4.74618 28.0736
rfemur -5.02265 -5.99733 7.76375
rtibia 55.9826
rfoot -27.9822 -4.82891
rtoes -13.9786
lfemur -11.478 -7.68341 -19.3119
ltibia 57.1143
lfoot -31.4186 -4.47134
ltoes -0.0772728
112
root 0.56163 15.9093 0.426256 -30.0356 -84.3799 14.5441
lowerback 18.9796 -0.947148 4.4968
upperback 3.26268 -0.694193 -2.06742
thorax -7.16821 -0.543611 -4.62084
lowerneck 12.8877 -1.91761 -3.82456
upperneck -8.7563 -3.6442 -2.96414
head -4.72622 -1.4814 -0.021557
rclavicle 5.87968e-015 8.64713e-015
rhumerus -155.361 -198.277 95.3869
rradius 84.8796
rwrist 27.7731
rhand -48.0339 14.6954
rfingers 7.12502
rthumb -20.701 -14.2205
lclavicle 5.87968e-015 8.64713e-015
lhumerus -150.52 215.953 -97.7868
lradius 82.1991
lwrist 23.8103
lhand -31.5207 358.335
lfingers 7.12502
lthumb -4.78594 28.2606
rfemur -4.74353 -6.41534 7.49502
rtibia 56.4862
rfoot -28.1123 -4.40182
rtoes -14.0403
lfemur -11.3383 -7.67732 -19.2862
ltibia 57.655
lfoot -31.766 -4.82002
ltoes -0.162824
113
root 0.519238 15.8649 0.430019 -28.7868 -84.1584 13.031
lowerback 18.8142 -0.90336 4.60559
upperback 3.03937 -0.606897 -2.07145
thorax -7.31319 -0.507345 -4.71078
lowerneck 12.9285 -2.06548 -3.80891
upperneck -8.07697 -3.80885 -2.95754
head -4.52111 -1.58114 -0.0143552
rclavicle 9.65969e-016 -2.98177e-015
rhumerus -152.849 -197.559 96.6175
rradius 85.0506
rwrist 28.5992
rhand -49.3012 15.7639
rfingers 7.12502
rthumb -21.9182 -13.0145
lclavicle 9.65969e-016 -2.98177e-015
lhumerus -148.078 215.953 -99.2483
lradius 83.0594
lwrist 23.4888
lhand -31.5497 358.574
lfingers 7.12502
lthumb -4.81396 28.4992
rfemur -4.49759 -6.8739 7.24623
rtibia 57.0235
rfoot -28.2301 -4.03021
rtoes -14.194
lfemur -11.2502 -7.66685 -19.2124
ltibia 58.2377
lfoot -32.1107 -5.2142
ltoes -0.21936
114
root 0.476527 15.8185 0.432352 -27.7078 -83.933 11.6946
lowerback 18.6591 -0.850601 4.69233
upperback 2.81566 -0.512342 -2.07423
thorax -7.46269 -0.467786 -4.7885
lowerneck 12.9448 -2.2155 -3.77192
upperneck -7.42081 -3.97631 -2.97466
head -4.32065 -1.68168 -0.0183207
rclavicle 5.7337e-015 -6.95746e-015
rhumerus -150.442 -196.755 97.8202
rradius 85.3396
rwrist 29.5167
rhand -50.5481 16.7258
rfingers 7.12502
rthumb -23.1151 -11.9076
lclavicle 5.7337e-015 -6.95746e-015
lhumerus -145.652 215.866 -100.72
lradius 83.798
lwrist 23.0722
lhand -31.5848 358.772
lfingers 7.12502
lthumb -4.84781 28.6966
rfemur -4.25095 -7.30823 6.99012
rtibia 57.5729
rfoot -28.3798 -3.63584
rtoes -14.3141
lfemur -11.1666 -7.68205 -19.142
ltibia 58.8372
lfoot -32.4748 -5.62169
ltoes -0.250603
